<svg xmlns="http://www.w3.org/2000/svg" viewBox="0 0 100 100" fill="none" aria-hidden="true">

  <defs>
    <linearGradient id="castleGrad" x1="12%" y1="88%" x2="88%" y2="12%">
      <stop offset="0%" stop-color="#0c1526"/>
      <stop offset="55%" stop-color="#152238"/>
      <stop offset="100%" stop-color="#c026d3"/>
    </linearGradient>
  </defs>
<path fill="url(#castleGrad)" fill-opacity="0.12" stroke="url(#castleGrad)" stroke-width="1.8" stroke-linejoin="round" d="M20 72 V50 L32 38 H68 L80 50 V72 Z"/>
    <path fill="url(#castleGrad)" fill-opacity="0.12" stroke="url(#castleGrad)" stroke-width="1.8" stroke-linejoin="round" d="M36 72 V54 H64 V72 Z"/>
    <path fill="url(#castleGrad)" fill-opacity="0.12" stroke="url(#castleGrad)" stroke-width="1.8" stroke-linejoin="round" d="M42 38 V28 H58 V38 Z"/>
    <path stroke="url(#castleGrad)" stroke-width="2" stroke-linecap="round" stroke-linejoin="round" d="M32 38 L38 30 M68 38 L62 30"/>
    <path stroke="url(#castleGrad)" stroke-width="2" stroke-linecap="round" stroke-linejoin="round" d="M46 28 L50 18 L54 28"/>
    <path stroke="url(#castleGrad)" stroke-width="2" stroke-linecap="round" stroke-linejoin="round" d="M44 58 H56 V72"/>
    <path stroke="url(#castleGrad)" stroke-width="2" stroke-linecap="round" stroke-linejoin="round" d="M14 72 H86"/>
    <path stroke="url(#castleGrad)" stroke-width="2" stroke-linecap="round" stroke-linejoin="round" d="M24 46 H34 V54 M66 54 V46 H76" stroke-opacity="0.5"/>
    <path stroke="url(#castleGrad)" stroke-width="2" stroke-linecap="round" stroke-linejoin="round" d="M18 78 L26 72 M74 72 L82 78" stroke-opacity="0.4"/>
</svg>